<?xml version="1.0" encoding="utf-8"?>
<!-- Generator: Adobe Illustrator 16.0.0, SVG Export Plug-In . SVG Version: 6.00 Build 0)  -->
<!DOCTYPE svg PUBLIC "-//W3C//DTD SVG 1.1//EN" "http://www.w3.org/Graphics/SVG/1.1/DTD/svg11.dtd">
<svg version="1.1" id="Layer_1" xmlns="http://www.w3.org/2000/svg" xmlns:xlink="http://www.w3.org/1999/xlink" viewBox="0 110 350.93 350.93" enable-background="new 0 0 566.93 566.93" xml:space="preserve">
<g>
	<g>
		<path fill="#F3F3F3" d="M282.385,319.176l15.525-79.876c8.65,0,16.711-0.119,24.766-0.119c14.699,0,26.312,4.267,26.312,17.658
			c0,9.719-4.146,17.657-12.208,21.096c5.454,1.421,8.534,6.518,8.534,13.273c0,13.034-9.123,28.088-35.788,28.088
			C300.635,319.295,291.035,319.176,282.385,319.176z M313.198,287.176c-0.596,0-1.899,0.119-2.727,0.119l-2.727,13.866
			c0.946,0.119,1.542,0.119,2.727,0.119c8.411,0,11.258-3.793,11.258-9.481C321.729,289.191,320.068,287.176,313.198,287.176z
			 M319.479,257.076c-1.065,0-2.488,0.117-3.204,0.236l-2.369,12.681c0.831,0,1.304,0,2.135,0c7.584,0,10.903-3.083,10.903-8.888
			C326.944,258.617,325.402,257.076,319.479,257.076z"/>
		<path fill="#F3F3F3" d="M345.898,319.176l15.523-79.876h23.465l-15.526,79.876H345.898z"/>
		<path fill="#F3F3F3" d="M413.088,319.176l-5.812-30.695h-0.351l-6.046,30.695h-23.108l15.523-79.876h23.107l-5.215,27.494h0.357
			l15.289-27.494h26.308l-24.177,37.923l10.431,41.954H413.088z"/>
		<path fill="#F3F3F3" d="M441.634,319.176l15.523-79.876h44.919l-3.677,18.842H476.83l-2.016,10.904h19.438l-3.673,18.723h-19.438
			l-2.488,12.446h21.927l-3.673,18.961H441.634z"/>
		<path fill="#F3F3F3" d="M289.748,366.36c1.66,4.269,2.605,8.649,2.605,13.272c0,21.216-16.827,34.724-45.032,34.724
			c-23.702,0-34.012-8.889-34.012-21.923c0-9.601,5.213-19.555,15.879-22.992c-3.673-2.016-5.925-6.281-5.925-11.97
			c0-11.615,8.177-26.546,29.034-26.546c7.229,0,14.933,2.135,19.081,4.385l-7.94,16.119c-2.725-1.186-6.4-2.25-11.021-2.25
			c-4.622,0-7.821,2.723-7.821,6.396c0,2.608,2.488,4.031,6.281,4.031h1.896l-3.912,19.673h-2.252c-5.688,0-9.005,3.673-9.005,8.412
			c0,4.149,3.317,7.111,13.035,7.111c11.732,0,18.132-5.097,18.132-11.612c0-1.899-0.711-4.507-1.54-6.757
			c-2.252,1.064-4.504,2.134-7.585,4.149l-4.74-16.592c11.733-6.639,26.071-13.158,38.279-17.539l4.857,16.474
			C294.133,364.349,292.117,365.176,289.748,366.36z"/>
		<path fill="#F3F3F3" d="M296.487,412.579l15.526-79.873c8.65,0,16.708-0.119,24.766-0.119c14.696,0,26.308,4.266,26.308,17.657
			c0,9.716-4.146,17.658-12.204,21.093c5.45,1.423,8.531,6.52,8.531,13.273c0,13.034-9.127,28.088-35.789,28.088
			C314.737,412.698,305.137,412.579,296.487,412.579z M327.299,380.583c-0.593,0-1.896,0.119-2.724,0.119l-2.727,13.865
			c0.946,0.119,1.542,0.119,2.727,0.119c8.412,0,11.258-3.792,11.258-9.484C335.833,382.595,334.172,380.583,327.299,380.583z
			 M333.579,350.479c-1.065,0-2.488,0.119-3.2,0.238l-2.369,12.681c0.827,0,1.305,0,2.131,0c7.585,0,10.908-3.081,10.908-8.889
			C341.049,352.021,339.506,350.479,333.579,350.479z"/>
		<path fill="#F3F3F3" d="M359.999,412.579l15.522-79.873h44.92l-3.678,18.843h-21.568l-2.016,10.899h19.438l-3.673,18.724h-19.438
			l-2.489,12.446h21.928l-3.674,18.961H359.999z"/>
		<path fill="#F3F3F3" d="M437.495,412.814c-11.258,0-19.2-0.116-25.48-0.235l15.526-79.873c8.531-0.119,16.708-0.238,25.478-0.238
			c20.619,0,31.758,4.977,31.758,24.885c0,4.742-0.589,10.312-1.893,16.712C477.787,399.898,464.63,412.814,437.495,412.814z
			 M460.483,360.91c0-6.754-2.604-10.192-9.123-10.192c-0.83,0-2.846,0-4.269,0.115l-8.293,43.496c1.304,0,2.962,0.119,3.674,0.119
			c8.888,0,13.627-6.638,16.826-23.111C460.13,367.19,460.483,363.752,460.483,360.91z"/>
	</g>
	<g>
		<g>
			<path fill="#8DC641" d="M143.2,147.431c-2.665,0.472-4.902,1.934-6.415,3.93l-0.004-0.015c0,0-3.068,3.66-6.606,4.284
				c-3.539,0.624-7.672-1.768-7.672-1.768v0.017c-2.106-1.36-4.707-1.967-7.372-1.498c-5.612,0.991-9.362,6.34-8.371,11.954
				c0.989,5.614,6.343,9.36,11.957,8.371c2.666-0.469,4.898-1.931,6.415-3.93l0.004,0.015c0,0,3.073-3.606,6.612-4.23
				s7.667,1.713,7.667,1.713l-0.003-0.015c2.106,1.36,4.708,1.965,7.374,1.498c5.614-0.991,9.359-6.342,8.373-11.956
				C154.167,150.189,148.813,146.442,143.2,147.431z M117.843,167.76c-2.882,0.508-5.629-1.417-6.134-4.295
				c-0.51-2.881,1.412-5.625,4.293-6.135c2.881-0.507,5.631,1.414,6.135,4.295C122.645,164.504,120.722,167.251,117.843,167.76z
				 M145.913,162.809c-2.88,0.507-5.631-1.414-6.136-4.295c-0.505-2.88,1.416-5.627,4.297-6.134
				c2.877-0.509,5.625,1.416,6.133,4.295C150.712,159.557,148.792,162.3,145.913,162.809z"/>
		</g>
		<g>
			<path fill="#8DC641" d="M174.85,152.38c-2.666-0.468-5.266,0.14-7.376,1.498l0.004-0.015c0,0-4.133,2.392-7.67,1.766
				c-3.539-0.624-6.607-4.284-6.607-4.284l-0.003,0.015c-1.518-1.997-3.751-3.459-6.417-3.929
				c-5.612-0.989-10.965,2.757-11.954,8.371c-0.989,5.614,2.758,10.963,8.371,11.954c2.666,0.469,5.264-0.138,7.376-1.498
				l-0.004,0.013c0,0,4.122-2.336,7.661-1.71c3.539,0.622,6.616,4.228,6.616,4.228v-0.013c1.518,1.999,3.755,3.459,6.42,3.93
				c5.612,0.987,10.965-2.758,11.954-8.373C184.212,158.72,180.462,153.371,174.85,152.38z M144.07,162.809
				c-2.883-0.508-4.806-3.254-4.297-6.135c0.504-2.878,3.254-4.804,6.133-4.295c2.881,0.509,4.806,3.256,4.297,6.136
				C149.695,161.391,146.952,163.315,144.07,162.809z M172.14,167.758c-2.881-0.509-4.806-3.258-4.297-6.136
				c0.509-2.879,3.256-4.802,6.138-4.295c2.877,0.508,4.802,3.256,4.293,6.133C177.765,166.342,175.02,168.264,172.14,167.758z"/>
		</g>
		<g>
			<path fill="#8DC641" d="M202.901,167.854c-2.347-1.352-4.996-1.671-7.443-1.112l0.008-0.017c0,0-4.703,0.831-7.814-0.965
				c-3.112-1.795-4.742-6.284-4.742-6.284l-0.009,0.013c-0.737-2.393-2.339-4.532-4.687-5.888
				c-4.936-2.848-11.248-1.156-14.096,3.779c-2.85,4.934-1.159,11.245,3.777,14.097c2.345,1.354,4.996,1.67,7.441,1.116
				l-0.007,0.011c0,0,4.677-0.786,7.788,1.013c3.112,1.795,4.77,6.238,4.77,6.238l0.004-0.015c0.743,2.396,2.345,4.534,4.688,5.89
				c4.936,2.846,11.249,1.157,14.1-3.779C209.525,177.015,207.837,170.703,202.901,167.854z M170.408,167.126
				c-2.535-1.462-3.401-4.702-1.941-7.235c1.462-2.533,4.703-3.399,7.234-1.939c2.535,1.462,3.405,4.703,1.941,7.236
				C176.18,167.719,172.939,168.588,170.408,167.126z M195.091,181.375c-2.531-1.46-3.403-4.7-1.937-7.233
				c1.46-2.531,4.701-3.401,7.234-1.937c2.531,1.46,3.401,4.7,1.935,7.233C200.864,181.973,197.626,182.839,195.091,181.375z"/>
		</g>
		<g>
			<path fill="#8DC641" d="M223.964,191.989c-1.742-2.071-4.124-3.278-6.614-3.593l0.015-0.009c0,0-4.705-0.827-7.015-3.58
				c-2.308-2.751-2.304-7.527-2.304-7.527l-0.017,0.009c0.128-2.505-0.645-5.061-2.388-7.134
				c-3.664-4.364-10.172-4.936-14.538-1.272c-4.366,3.662-4.934,10.172-1.274,14.538c1.741,2.071,4.124,3.278,6.614,3.595
				l-0.011,0.007c0,0,4.662,0.862,6.97,3.613c2.31,2.753,2.349,7.495,2.349,7.495l0.013-0.011c-0.123,2.505,0.648,5.063,2.39,7.136
				c3.66,4.364,10.174,4.934,14.538,1.271C227.06,202.864,227.627,196.354,223.964,191.989z M193.681,180.192
				c-1.883-2.242-1.587-5.58,0.652-7.461c2.241-1.881,5.579-1.587,7.46,0.652c1.879,2.243,1.587,5.582-0.652,7.462
				C198.9,182.724,195.563,182.433,193.681,180.192z M212,202.026c-1.875-2.239-1.587-5.583,0.654-7.462
				c2.243-1.879,5.581-1.587,7.462,0.654s1.587,5.581-0.654,7.46C217.223,204.56,213.885,204.267,212,202.026z"/>
		</g>
		<g>
			<path fill="#8DC641" d="M235.501,221.873c-0.926-2.542-2.751-4.491-4.984-5.636l0.017-0.008c0,0-4.137-2.384-5.366-5.761
				c-1.228-3.375,0.408-7.862,0.408-7.862l-0.015,0.006c0.971-2.312,1.12-4.979,0.196-7.523c-1.95-5.353-7.872-8.117-13.227-6.167
				c-5.357,1.95-8.119,7.872-6.167,13.225c0.924,2.546,2.749,4.493,4.984,5.64l-0.017,0.005c0,0,4.086,2.403,5.314,5.778
				c1.231,3.379-0.352,7.847-0.352,7.847l0.009-0.007c-0.97,2.312-1.119,4.981-0.191,7.523c1.95,5.355,7.871,8.118,13.225,6.167
				C234.691,233.151,237.453,227.229,235.501,221.873z M211.082,200.428c-1.004-2.75,0.415-5.786,3.165-6.786
				c2.746-1,5.787,0.417,6.786,3.161c1.002,2.751-0.416,5.792-3.163,6.791C215.124,204.595,212.082,203.179,211.082,200.428z
				 M220.829,227.213c-1-2.748,0.417-5.788,3.167-6.786c2.748-1,5.789,0.416,6.784,3.163c1.004,2.749-0.416,5.789-3.163,6.788
				C224.869,231.377,221.833,229.962,220.829,227.213z"/>
		</g>
		<g>
			<path fill="#8DC641" d="M236.125,253.9c0-2.707-1.051-5.161-2.753-7.001h0.013c0,0-3.069-3.658-3.069-7.25s3.069-7.25,3.069-7.25
				h-0.013c1.702-1.842,2.753-4.295,2.753-7.003c0-5.696-4.621-10.319-10.319-10.319s-10.317,4.619-10.317,10.319
				c0,2.708,1.047,5.162,2.753,7.003h-0.015c0,0,3.019,3.657,3.019,7.25c0,3.591-3.019,7.25-3.019,7.25h0.015
				c-1.702,1.84-2.753,4.295-2.753,7.001c0,5.7,4.62,10.323,10.317,10.319C231.504,264.223,236.125,259.6,236.125,253.9z
				 M220.509,225.396c0-2.926,2.371-5.293,5.297-5.293c2.926-0.002,5.293,2.369,5.293,5.293c0.004,2.926-2.367,5.299-5.293,5.299
				C222.885,230.696,220.509,228.323,220.509,225.396z M220.512,253.9c-0.003-2.922,2.368-5.295,5.294-5.295
				c2.926,0.002,5.297,2.369,5.293,5.297c0.004,2.924-2.367,5.295-5.293,5.295S220.512,256.828,220.512,253.9z"/>
		</g>
		<g>
			<path fill="#8DC641" d="M225.758,284.213c0.927-2.546,0.778-5.212-0.198-7.523l0.019,0.004c0,0-1.639-4.487-0.408-7.862
				c1.229-3.375,5.362-5.761,5.362-5.761l-0.013-0.008c2.233-1.144,4.059-3.092,4.984-5.636c1.948-5.355-0.811-11.276-6.167-13.227
				s-11.278,0.81-13.227,6.167c-0.925,2.542-0.78,5.209,0.194,7.525l-0.011-0.007c0,0,1.585,4.466,0.354,7.843
				c-1.228,3.377-5.318,5.782-5.318,5.782l0.017,0.003c-2.23,1.146-4.055,3.096-4.984,5.64c-1.949,5.354,0.812,11.276,6.171,13.225
				C217.884,292.328,223.806,289.566,225.758,284.213z M220.833,252.086c1-2.751,4.036-4.167,6.787-3.166
				c2.748,1,4.163,4.04,3.165,6.785c-1,2.753-4.042,4.169-6.789,3.168C221.25,257.875,219.833,254.835,220.833,252.086z
				 M211.086,278.869c1-2.748,4.038-4.165,6.783-3.163c2.748,1,4.167,4.038,3.163,6.788c-0.995,2.746-4.035,4.165-6.784,3.163
				C211.497,284.658,210.082,281.622,211.086,278.869z"/>
		</g>
		<g>
			<path fill="#8DC641" d="M210.741,310.529c1.352-2.347,1.672-4.995,1.116-7.438l0.013,0.007c0,0-0.831-4.705,0.963-7.815
				c1.799-3.11,6.286-4.744,6.286-4.744l-0.015-0.006c2.397-0.741,4.535-2.343,5.888-4.688c2.852-4.935,1.16-11.245-3.777-14.095
				c-4.936-2.852-11.245-1.161-14.097,3.775c-1.35,2.343-1.671,4.998-1.114,7.443l-0.011-0.01c0,0,0.784,4.676-1.015,7.788
				c-1.795,3.112-6.236,4.773-6.236,4.773h0.013c-2.397,0.745-4.533,2.347-5.888,4.687c-2.852,4.939-1.16,11.25,3.777,14.097
				C201.581,317.157,207.893,315.466,210.741,310.529z M211.469,278.038c1.464-2.535,4.702-3.401,7.233-1.941
				c2.535,1.464,3.403,4.703,1.94,7.233c-1.464,2.537-4.701,3.404-7.232,1.942C210.875,283.811,210.007,280.571,211.469,278.038z
				 M197.22,302.726c1.46-2.537,4.7-3.405,7.234-1.941c2.531,1.464,3.397,4.701,1.934,7.231c-1.458,2.533-4.7,3.404-7.231,1.944
				C196.623,308.492,195.756,305.259,197.22,302.726z"/>
		</g>
		<g>
			<path fill="#8DC641" d="M111.769,153.607c-2.343,1.352-3.945,3.49-4.688,5.888l-0.008-0.013c0,0-1.631,4.487-4.744,6.283
				c-3.111,1.797-7.812,0.965-7.812,0.965l0.005,0.015c-2.445-0.557-5.096-0.239-7.441,1.114c-4.932,2.852-6.627,9.16-3.777,14.096
				c2.852,4.936,9.164,6.627,14.1,3.775c2.341-1.352,3.943-3.489,4.683-5.886l0.009,0.013c0,0,1.656-4.44,4.77-6.238
				c3.11-1.793,7.786-1.009,7.786-1.009l-0.007-0.013c2.446,0.555,5.096,0.238,7.443-1.116c4.936-2.85,6.627-9.164,3.776-14.098
				C123.017,152.447,116.705,150.757,111.769,153.607z M94.892,181.383c-2.535,1.462-5.772,0.592-7.234-1.941
				c-1.464-2.529-0.594-5.769,1.937-7.23c2.535-1.464,5.772-0.598,7.238,1.935C98.292,176.68,97.423,179.919,94.892,181.383z
				 M119.575,167.128c-2.533,1.462-5.774,0.596-7.236-1.937c-1.46-2.531-0.593-5.771,1.942-7.234
				c2.531-1.46,5.769-0.592,7.232,1.939C122.974,162.429,122.11,165.666,119.575,167.128z"/>
		</g>
		<g>
			<path fill="#8DC641" d="M84.341,170.159c-1.74,2.075-2.513,4.632-2.39,7.138l-0.011-0.011c0,0,0,4.775-2.308,7.528
				c-2.31,2.753-7.013,3.578-7.013,3.578l0.013,0.01c-2.492,0.314-4.874,1.521-6.614,3.593c-3.662,4.368-3.092,10.878,1.27,14.54
				c4.37,3.662,10.878,3.094,14.54-1.272c1.74-2.075,2.517-4.63,2.394-7.136l0.007,0.009c0,0,0.041-4.739,2.351-7.492
				c2.312-2.753,6.972-3.615,6.972-3.615l-0.015-0.007c2.492-0.317,4.875-1.52,6.614-3.595c3.662-4.364,3.096-10.878-1.272-14.538
				C94.517,165.225,88.007,165.794,84.341,170.159z M77.98,202.032c-1.881,2.241-5.219,2.533-7.459,0.652
				c-2.243-1.877-2.532-5.217-0.656-7.458c1.887-2.242,5.225-2.535,7.465-0.653C79.567,196.45,79.862,199.791,77.98,202.032z
				 M96.305,180.198c-1.881,2.239-5.225,2.533-7.462,0.652c-2.241-1.879-2.531-5.221-0.654-7.46c1.879-2.241,5.221-2.531,7.46-0.652
				C97.892,174.616,98.185,177.958,96.305,180.198z"/>
		</g>
		<g>
			<path fill="#8DC641" d="M64.23,195.096c-0.925,2.542-0.776,5.209,0.196,7.523l-0.013-0.006c0,0,1.632,4.487,0.404,7.864
				c-1.229,3.375-5.364,5.761-5.364,5.761l0.013,0.003c-2.231,1.147-4.061,3.096-4.981,5.638
				c-1.952,5.357,0.809,11.278,6.166,13.229c5.353,1.946,11.278-0.814,13.227-6.171c0.925-2.541,0.776-5.208-0.194-7.52l0.011,0.002
				c0,0-1.583-4.467-0.352-7.842c1.226-3.375,5.314-5.781,5.314-5.781l-0.019-0.004c2.235-1.146,4.061-3.096,4.986-5.636
				c1.952-5.357-0.812-11.282-6.167-13.229C72.104,186.978,66.183,189.74,64.23,195.096z M69.155,227.22
				c-0.998,2.751-4.04,4.165-6.787,3.165c-2.748-0.997-4.163-4.038-3.163-6.786c1-2.749,4.04-4.167,6.787-3.167
				C68.74,221.433,70.156,224.471,69.155,227.22z M78.904,200.436c-1,2.748-4.038,4.167-6.789,3.167
				c-2.746-1.002-4.163-4.042-3.165-6.788c1.002-2.747,4.042-4.167,6.789-3.166C78.487,194.648,79.903,197.688,78.904,200.436z"/>
		</g>
		<g>
			<path fill="#8DC641" d="M53.863,225.406c0,2.707,1.052,5.162,2.755,7.002h-0.015c0,0,3.069,3.658,3.069,7.251
				c0,3.593-3.069,7.248-3.069,7.248h0.015c-1.706,1.84-2.755,4.295-2.755,7.001c0,5.702,4.618,10.321,10.319,10.321
				c5.698-0.002,10.319-4.619,10.319-10.321c0-2.707-1.05-5.161-2.754-7.001h0.011c0,0-3.014-3.654-3.014-7.248
				c0-3.593,3.018-7.251,3.018-7.251l-0.015,0.001c1.704-1.842,2.754-4.295,2.754-7.003c0-5.7-4.621-10.321-10.319-10.319
				C58.482,215.085,53.863,219.706,53.863,225.406z M69.476,253.908c0,2.928-2.37,5.297-5.294,5.295
				c-2.926,0.002-5.293-2.369-5.297-5.293c0-2.926,2.371-5.297,5.297-5.297C67.104,248.612,69.476,250.983,69.476,253.908z
				 M69.476,225.406c0,2.926-2.37,5.297-5.297,5.297c-2.923-0.002-5.294-2.373-5.294-5.299c0-2.923,2.371-5.294,5.297-5.294
				C67.106,220.11,69.476,222.479,69.476,225.406z"/>
		</g>
		<g>
			<path fill="#8DC641" d="M54.485,257.434c0.924,2.543,2.755,4.491,4.982,5.638l-0.015,0.004c0,0,4.139,2.388,5.37,5.763
				c1.226,3.377-0.41,7.86-0.41,7.86l0.013-0.003c-0.972,2.313-1.118,4.979-0.192,7.523c1.948,5.354,7.87,8.117,13.227,6.169
				c5.352-1.952,8.119-7.874,6.167-13.229c-0.927-2.541-2.751-4.491-4.984-5.64l0.013-0.002c0,0-4.084-2.405-5.314-5.78
				c-1.228-3.375,0.355-7.845,0.355-7.845l-0.015,0.005c0.974-2.313,1.123-4.979,0.194-7.523c-1.949-5.355-7.87-8.119-13.227-6.167
				C55.297,246.156,52.535,252.077,54.485,257.434z M78.908,278.876c0.999,2.749-0.419,5.789-3.165,6.79
				c-2.751,0.998-5.789-0.418-6.788-3.165c-1-2.751,0.416-5.791,3.163-6.791C74.866,274.711,77.906,276.129,78.908,278.876z
				 M69.155,252.094c1,2.749-0.412,5.785-3.163,6.787c-2.748,0.999-5.783-0.419-6.787-3.166c-1-2.746,0.415-5.788,3.167-6.786
				C65.119,247.927,68.157,249.343,69.155,252.094z"/>
		</g>
		<g>
			<path fill="#8DC641" d="M64.996,285.852c1.354,2.342,3.491,3.941,5.888,4.685l-0.015,0.01c0,0,4.491,1.632,6.288,4.744
				c1.794,3.11,0.961,7.812,0.961,7.812l0.015-0.011c-0.557,2.451-0.242,5.104,1.116,7.442c2.848,4.939,9.161,6.631,14.096,3.781
				c4.936-2.854,6.627-9.164,3.776-14.1c-1.353-2.34-3.491-3.945-5.888-4.687l0.011-0.008c0,0-4.438-1.657-6.234-4.767
				c-1.799-3.112-1.011-7.787-1.011-7.787l-0.015,0.005c0.559-2.444,0.238-5.098-1.116-7.441c-2.846-4.935-9.16-6.627-14.095-3.776
				C63.838,274.602,62.146,280.914,64.996,285.852z M92.771,302.726c1.46,2.533,0.596,5.774-1.939,7.234
				c-2.533,1.464-5.77,0.596-7.234-1.938c-1.462-2.533-0.594-5.774,1.936-7.234C88.065,299.328,91.308,300.192,92.771,302.726z
				 M78.521,278.045c1.46,2.533,0.594,5.769-1.94,7.233c-2.531,1.46-5.771,0.594-7.234-1.941c-1.46-2.53-0.594-5.769,1.94-7.233
				C73.819,274.643,77.055,275.509,78.521,278.045z"/>
		</g>
		<g>
			<path fill="#8DC641" d="M196.488,335.221c1.352-2.347,1.669-4.995,1.11-7.447l0.017,0.012c0,0-0.834-4.705,0.967-7.812
				c1.793-3.114,6.281-4.746,6.281-4.746l-0.009-0.008c2.395-0.737,4.533-2.339,5.884-4.687c2.852-4.932,1.162-11.242-3.777-14.096
				c-4.932-2.851-11.245-1.159-14.096,3.777c-1.354,2.347-1.669,4.995-1.116,7.442l-0.009-0.007c0,0,0.784,4.671-1.013,7.785
				c-1.794,3.114-6.24,4.769-6.24,4.769l0.015,0.008c-2.399,0.745-4.536,2.343-5.888,4.687c-2.848,4.939-1.157,11.246,3.775,14.1
				C187.326,341.848,193.639,340.156,196.488,335.221z M197.217,302.729c1.46-2.537,4.699-3.401,7.234-1.941
				c2.531,1.46,3.396,4.701,1.937,7.234c-1.466,2.533-4.703,3.401-7.234,1.938C196.623,308.5,195.752,305.262,197.217,302.729z
				 M182.966,327.412c1.46-2.533,4.701-3.404,7.232-1.94s3.403,4.701,1.937,7.234c-1.46,2.533-4.697,3.401-7.232,1.941
				C182.37,333.183,181.5,329.945,182.966,327.412z"/>
		</g>
		<g>
			<path fill="#8DC641" d="M182.232,359.908c1.354-2.348,1.672-4.996,1.116-7.443l0.015,0.012c0,0-0.833-4.705,0.963-7.813
				c1.796-3.114,6.287-4.746,6.287-4.746l-0.017-0.007c2.399-0.741,4.538-2.34,5.89-4.687c2.846-4.937,1.161-11.25-3.779-14.097
				c-4.934-2.854-11.246-1.162-14.092,3.777c-1.354,2.344-1.675,4.992-1.116,7.443l-0.015-0.008c0,0,0.784,4.672-1.011,7.786
				c-1.796,3.106-6.242,4.769-6.242,4.769l0.015,0.003c-2.394,0.742-4.53,2.344-5.884,4.69c-2.852,4.937-1.159,11.247,3.777,14.097
				S179.38,364.844,182.232,359.908z M182.96,327.416c1.466-2.533,4.699-3.4,7.234-1.937c2.535,1.46,3.397,4.701,1.938,7.227
				c-1.462,2.541-4.703,3.409-7.235,1.944C182.368,333.19,181.496,329.949,182.96,327.416z M168.709,352.1
				c1.46-2.533,4.703-3.4,7.234-1.937c2.531,1.46,3.399,4.701,1.938,7.234c-1.462,2.533-4.702,3.397-7.231,1.937
				C168.113,357.874,167.249,354.633,168.709,352.1z"/>
		</g>
		<g>
			<path fill="#8DC641" d="M167.982,384.599c1.354-2.339,1.671-4.995,1.112-7.442l0.017,0.007c0,0-0.834-4.701,0.965-7.812
				c1.796-3.11,6.283-4.742,6.283-4.742l-0.009-0.008c2.396-0.741,4.534-2.343,5.882-4.687c2.852-4.932,1.164-11.246-3.776-14.096
				c-4.932-2.851-11.245-1.163-14.096,3.777c-1.354,2.343-1.673,4.995-1.116,7.442l-0.011-0.007c0,0,0.786,4.671-1.011,7.786
				c-1.794,3.11-6.242,4.768-6.242,4.768l0.017,0.008c-2.399,0.741-4.536,2.343-5.89,4.687c-2.846,4.936-1.155,11.246,3.777,14.096
				C158.822,391.229,165.133,389.535,167.982,384.599z M168.713,352.107c1.46-2.533,4.699-3.397,7.234-1.938
				c2.531,1.461,3.396,4.701,1.935,7.23c-1.464,2.537-4.703,3.405-7.232,1.941C168.119,357.882,167.249,354.641,168.713,352.107z
				 M154.462,376.791c1.46-2.529,4.697-3.397,7.232-1.938c2.531,1.461,3.401,4.701,1.938,7.234
				c-1.462,2.533-4.703,3.401-7.235,1.938C153.866,382.564,152.996,379.328,154.462,376.791z"/>
		</g>
		<g>
			<path fill="#8DC641" d="M153.989,409.335c1.332-2.354,1.628-5.011,1.047-7.451l0.015,0.008c0,0-0.874-4.694,0.896-7.823
				c1.77-3.125,6.247-4.798,6.247-4.798l-0.015-0.008c2.39-0.76,4.511-2.38,5.847-4.738c2.802-4.958,1.06-11.258-3.904-14.06
				c-4.958-2.809-11.256-1.064-14.059,3.897c-1.334,2.357-1.632,5.014-1.051,7.45l-0.017-0.004c0,0,0.827,4.668-0.942,7.797
				c-1.766,3.122-6.197,4.82-6.197,4.82l0.015,0.008c-2.392,0.76-4.513,2.384-5.843,4.738c-2.811,4.962-1.063,11.258,3.898,14.063
				C144.884,416.04,151.182,414.297,153.989,409.335z M154.434,376.839c1.438-2.552,4.669-3.445,7.216-2.004
				c2.546,1.441,3.438,4.672,2,7.216c-1.438,2.548-4.673,3.446-7.216,2.004C153.888,382.617,152.992,379.384,154.434,376.839z
				 M140.399,401.646c1.438-2.548,4.668-3.442,7.214-2.004c2.548,1.445,3.442,4.671,2,7.22c-1.439,2.544-4.667,3.441-7.216,2.004
				C139.852,407.42,138.956,404.193,140.399,401.646z"/>
		</g>
		<g>
			<path fill="#8DC641" d="M79.249,310.537c1.354,2.344,3.489,3.945,5.888,4.683l-0.015,0.012c0,0,4.491,1.628,6.286,4.742
				c1.796,3.106,0.961,7.812,0.961,7.812l0.015-0.008c-0.557,2.448-0.24,5.101,1.116,7.443c2.848,4.936,9.16,6.627,14.096,3.777
				c4.938-2.85,6.629-9.16,3.778-14.1c-1.353-2.34-3.491-3.941-5.89-4.687l0.013-0.004c0,0-4.438-1.658-6.236-4.772
				c-1.794-3.11-1.01-7.785-1.01-7.785l-0.015,0.007c0.557-2.443,0.24-5.096-1.116-7.438c-2.846-4.937-9.163-6.628-14.095-3.781
				C78.089,299.291,76.397,305.602,79.249,310.537z M107.024,327.416c1.462,2.529,0.594,5.767-1.941,7.228
				c-2.531,1.464-5.769,0.596-7.229-1.938c-1.466-2.533-0.6-5.774,1.935-7.234C102.323,324.012,105.559,324.879,107.024,327.416z
				 M92.771,302.729c1.46,2.532,0.596,5.771-1.939,7.234c-2.533,1.456-5.77,0.592-7.234-1.941c-1.462-2.529-0.59-5.771,1.941-7.234
				C88.07,299.328,91.308,300.196,92.771,302.729z"/>
		</g>
		<g>
			<path fill="#8DC641" d="M93.5,335.221c1.354,2.344,3.492,3.945,5.888,4.687l-0.009,0.007c0,0,4.485,1.632,6.283,4.742
				c1.793,3.115,0.963,7.816,0.963,7.816l0.013-0.008c-0.557,2.443-0.237,5.096,1.116,7.439c2.852,4.936,9.16,6.627,14.096,3.781
				c4.936-2.854,6.627-9.164,3.777-14.097c-1.354-2.347-3.492-3.948-5.886-4.69l0.007-0.007c0,0-4.438-1.658-6.232-4.769
				c-1.797-3.11-1.013-7.789-1.013-7.789l-0.015,0.007c0.559-2.443,0.242-5.096-1.114-7.439c-2.848-4.936-9.159-6.627-14.097-3.777
				C92.341,323.971,90.65,330.285,93.5,335.221z M121.275,352.1c1.462,2.533,0.596,5.771-1.939,7.23
				c-2.531,1.465-5.771,0.593-7.23-1.933c-1.466-2.537-0.594-5.778,1.937-7.242C116.574,348.695,119.813,349.566,121.275,352.1z
				 M107.024,327.416c1.462,2.533,0.594,5.771-1.937,7.231c-2.535,1.46-5.772,0.592-7.232-1.941
				c-1.466-2.525-0.596-5.767,1.935-7.227C102.323,324.012,105.559,324.883,107.024,327.416z"/>
		</g>
		<g>
			<path fill="#8DC641" d="M107.753,359.908c1.354,2.343,3.49,3.941,5.888,4.687l-0.009,0.007c0,0,4.487,1.632,6.281,4.742
				c1.799,3.111,0.967,7.813,0.967,7.813l0.011-0.008c-0.553,2.447-0.236,5.096,1.114,7.443c2.852,4.936,9.164,6.627,14.1,3.777
				c4.934-2.85,6.625-9.164,3.777-14.097c-1.356-2.347-3.489-3.948-5.888-4.687l0.009-0.007c0,0-4.437-1.662-6.236-4.769
				c-1.795-3.114-1.011-7.793-1.011-7.793l-0.011,0.015c0.553-2.451,0.238-5.1-1.118-7.443c-2.848-4.939-9.16-6.631-14.096-3.777
				C106.596,348.658,104.905,354.969,107.753,359.908z M135.528,376.783c1.466,2.533,0.594,5.774-1.937,7.234
				c-2.531,1.461-5.772,0.593-7.233-1.937c-1.466-2.537-0.596-5.774,1.936-7.238C130.827,373.379,134.068,374.25,135.528,376.783z
				 M121.275,352.1c1.462,2.533,0.596,5.774-1.935,7.234c-2.533,1.461-5.769,0.589-7.234-1.94c-1.466-2.529-0.594-5.771,1.937-7.23
				C116.578,348.699,119.813,349.566,121.275,352.1z"/>
		</g>
		<g>
			<path fill="#8DC641" d="M121.965,384.517c1.332,2.354,3.451,3.972,5.847,4.735l-0.015,0.011c0,0,4.472,1.669,6.242,4.795
				c1.77,3.125,0.894,7.819,0.894,7.819l0.017-0.004c-0.578,2.439-0.283,5.092,1.052,7.446c2.801,4.962,9.099,6.713,14.061,3.904
				c4.96-2.809,6.705-9.104,3.9-14.066c-1.336-2.354-3.457-3.972-5.847-4.735l0.011-0.003c0,0-4.424-1.703-6.193-4.828
				c-1.769-3.126-0.946-7.793-0.946-7.793l-0.013,0.003c0.579-2.439,0.287-5.092-1.049-7.45c-2.805-4.958-9.103-6.709-14.063-3.9
				C120.901,373.256,119.154,379.555,121.965,384.517z M149.591,401.631c1.438,2.548,0.542,5.777-2.002,7.22
				c-2.548,1.438-5.774,0.544-7.218-2.001c-1.441-2.548-0.542-5.777,2.002-7.223C144.914,398.188,148.149,399.086,149.591,401.631z
				 M135.554,376.824c1.44,2.548,0.544,5.778-2.004,7.224c-2.541,1.434-5.772,0.536-7.214-2.008
				c-1.438-2.545-0.542-5.778,1.999-7.216C130.883,373.382,134.113,374.28,135.554,376.824z"/>
		</g>
	</g>
</g>
</svg>
